<svg width="109" height="137" viewBox="0 0 109 137" fill="none" xmlns="http://www.w3.org/2000/svg">
<path opacity="0.1" d="M63.4095 52.2275C49.6977 52.2275 38.6156 56.172 30.9145 63.8731C31.8536 38.7035 45.9411 25.7431 67.9175 25.7431C76.7456 25.7431 85.1981 27.4336 92.5236 32.3172L103.794 9.96512C94.5898 4.14231 81.0658 0.949159 67.1662 0.949159C27.5335 0.949159 0.109899 26.3066 0.109899 71.7621C0.109899 114.212 22.6498 136.94 58.9015 136.94C86.7008 136.94 108.677 120.035 108.677 93.175C108.677 68.3811 88.7669 52.2275 63.4095 52.2275ZM57.211 114.212C42.5601 114.212 34.1076 105.948 34.1076 94.6777C34.1076 83.2199 43.4993 74.9552 56.8354 74.9552C70.3593 74.9552 79.1875 82.6564 79.1875 94.6777C79.1875 106.699 70.1715 114.212 57.211 114.212Z" fill="#3284FF"/>
</svg>
