<svg width="23" height="17" viewBox="0 0 23 17" fill="none" xmlns="http://www.w3.org/2000/svg">
<path opacity="0.5" d="M5.82573 0.318924C2.78573 0.318924 0.545728 2.31892 0.545728 5.43893C0.545728 7.55892 1.54573 9.11893 3.14573 9.87893L1.14573 16.6389H6.74573L9.54573 10.6789C10.9457 7.67893 11.1057 6.71893 11.1057 5.43893C11.1057 2.31892 8.86573 0.318924 5.82573 0.318924ZM17.4257 0.318924C14.3857 0.318924 12.1457 2.31892 12.1457 5.43893C12.1457 7.55892 13.1457 9.11893 14.7457 9.87893L12.7457 16.6389H18.3457L21.1457 10.6789C22.5457 7.67893 22.7057 6.71893 22.7057 5.43893C22.7057 2.31892 20.4657 0.318924 17.4257 0.318924Z" fill="#3284FF"/>
</svg>
