<svg width="64" height="15" viewBox="0 0 64 15" fill="none" xmlns="http://www.w3.org/2000/svg">
<path d="M0.485 11.5442H1.55V0.414196H0.485V11.5442ZM8.18832 11.6192C10.4983 11.6192 12.1933 9.9392 12.1933 7.5992C12.1933 5.2592 10.4983 3.5942 8.18832 3.5942C5.87832 3.5942 4.16832 5.2592 4.16832 7.5992C4.16832 9.9392 5.87832 11.6192 8.18832 11.6192ZM8.18832 10.6742C6.50832 10.6742 5.24832 9.4442 5.24832 7.5992C5.24832 5.7542 6.50832 4.5242 8.18832 4.5242C9.86832 4.5242 11.1133 5.7542 11.1133 7.5992C11.1133 9.4442 9.86832 10.6742 8.18832 10.6742ZM21.1026 3.6542V5.1692C20.4426 4.1342 19.3026 3.5942 17.9826 3.5942C15.7326 3.5942 14.0226 5.1392 14.0226 7.4042C14.0226 9.6692 15.7326 11.2442 17.9826 11.2442C19.2726 11.2442 20.3976 10.7192 21.0576 9.7142V10.7192C21.0576 12.6692 20.1426 13.5842 18.1476 13.5842C16.9326 13.5842 15.7926 13.1792 15.0426 12.5042L14.5026 13.3142C15.3276 14.0942 16.7376 14.5292 18.1776 14.5292C20.7876 14.5292 22.1226 13.2992 22.1226 10.5842V3.6542H21.1026ZM18.0876 10.2992C16.3476 10.2992 15.1026 9.1142 15.1026 7.4042C15.1026 5.6942 16.3476 4.5242 18.0876 4.5242C19.8276 4.5242 21.0876 5.6942 21.0876 7.4042C21.0876 9.1142 19.8276 10.2992 18.0876 10.2992ZM26.0908 1.9292C26.5408 1.9292 26.8708 1.5842 26.8708 1.1492C26.8708 0.744197 26.5258 0.414196 26.0908 0.414196C25.6558 0.414196 25.3108 0.759196 25.3108 1.1642C25.3108 1.5842 25.6558 1.9292 26.0908 1.9292ZM25.5508 11.5442H26.6158V3.6542H25.5508V11.5442ZM32.1441 11.6192C34.1991 11.6192 35.3991 10.7342 35.3991 9.3692C35.3991 6.3392 30.2841 7.9442 30.2841 5.8142C30.2841 5.0642 30.9141 4.5092 32.3391 4.5092C33.1491 4.5092 33.9741 4.7042 34.6641 5.1842L35.1291 4.3292C34.4691 3.8792 33.3591 3.5942 32.3391 3.5942C30.3291 3.5942 29.2191 4.5542 29.2191 5.8442C29.2191 8.9642 34.3341 7.3442 34.3341 9.3992C34.3341 10.1792 33.7191 10.6892 32.2191 10.6892C31.1091 10.6892 30.0441 10.2992 29.4141 9.8042L28.9341 10.6442C29.5791 11.1992 30.8391 11.6192 32.1441 11.6192ZM41.598 10.2992C41.298 10.5692 40.863 10.7042 40.428 10.7042C39.543 10.7042 39.063 10.1942 39.063 9.2642V4.5542H41.463V3.6542H39.063V1.9292H37.998V3.6542H36.588V4.5542H37.998V9.3242C37.998 10.7792 38.823 11.6192 40.308 11.6192C40.923 11.6192 41.553 11.4392 41.973 11.0642L41.598 10.2992ZM44.9018 1.9292C45.3518 1.9292 45.6818 1.5842 45.6818 1.1492C45.6818 0.744197 45.3368 0.414196 44.9018 0.414196C44.4668 0.414196 44.1218 0.759196 44.1218 1.1642C44.1218 1.5842 44.4668 1.9292 44.9018 1.9292ZM44.3618 11.5442H45.4268V3.6542H44.3618V11.5442ZM52.1101 11.6192C53.4451 11.6192 54.5701 11.0792 55.2001 10.0592L54.4051 9.5192C53.8651 10.3142 53.0251 10.6742 52.1101 10.6742C50.3851 10.6742 49.1251 9.4592 49.1251 7.5992C49.1251 5.7542 50.3851 4.5242 52.1101 4.5242C53.0251 4.5242 53.8651 4.8992 54.4051 5.6942L55.2001 5.1542C54.5701 4.1192 53.4451 3.5942 52.1101 3.5942C49.7551 3.5942 48.0451 5.2442 48.0451 7.5992C48.0451 9.9542 49.7551 11.6192 52.1101 11.6192ZM59.8572 11.6192C61.9122 11.6192 63.1122 10.7342 63.1122 9.3692C63.1122 6.3392 57.9972 7.9442 57.9972 5.8142C57.9972 5.0642 58.6272 4.5092 60.0522 4.5092C60.8622 4.5092 61.6872 4.7042 62.3772 5.1842L62.8422 4.3292C62.1822 3.8792 61.0722 3.5942 60.0522 3.5942C58.0422 3.5942 56.9322 4.5542 56.9322 5.8442C56.9322 8.9642 62.0472 7.3442 62.0472 9.3992C62.0472 10.1792 61.4322 10.6892 59.9322 10.6892C58.8222 10.6892 57.7572 10.2992 57.1272 9.8042L56.6472 10.6442C57.2922 11.1992 58.5522 11.6192 59.8572 11.6192Z" fill="#3284FF"/>
</svg>
