<svg width="23" height="18" viewBox="0 0 23 18" fill="none" xmlns="http://www.w3.org/2000/svg">
<path opacity="0.5" d="M8.67736 7.47893L10.6774 0.718924H5.07736L2.27736 6.67892C0.877358 9.67893 0.717358 10.6389 0.717358 11.9189C0.717358 15.0389 2.95736 17.0389 5.99736 17.0389C9.03736 17.0389 11.2774 15.0389 11.2774 11.9189C11.2774 9.79892 10.2774 8.23892 8.67736 7.47893ZM20.2774 7.47893L22.2774 0.718924H16.6774L13.8774 6.67892C12.4774 9.67893 12.3174 10.6389 12.3174 11.9189C12.3174 15.0389 14.5574 17.0389 17.5974 17.0389C20.6374 17.0389 22.8774 15.0389 22.8774 11.9189C22.8774 9.79892 21.8774 8.23892 20.2774 7.47893Z" fill="#3284FF"/>
</svg>
