<svg width="17" height="21" viewBox="0 0 17 21" fill="none" xmlns="http://www.w3.org/2000/svg">
<path d="M8.74121 10.4141C9.84121 10.4141 10.7412 9.51406 10.7412 8.41406C10.7412 7.31406 9.84121 6.41406 8.74121 6.41406C7.64121 6.41406 6.74121 7.31406 6.74121 8.41406C6.74121 9.51406 7.64121 10.4141 8.74121 10.4141ZM8.74121 0.414062C12.9412 0.414062 16.7412 3.63406 16.7412 8.61406C16.7412 11.7941 14.2912 15.5341 9.40121 19.8441C9.02121 20.1741 8.45121 20.1741 8.07121 19.8441C3.19121 15.5341 0.741211 11.7941 0.741211 8.61406C0.741211 3.63406 4.54121 0.414062 8.74121 0.414062Z" fill="white"/>
</svg>
