<svg width="44" height="49" viewBox="0 0 44 49" fill="none" xmlns="http://www.w3.org/2000/svg">
<path d="M41.1656 7.8188H35.9107V1.90361C35.9107 1.38765 35.4922 0.969238 34.9763 0.969238H9.28073C8.76478 0.969238 8.34637 1.38765 8.34637 1.90361V7.8188H3.09111C1.53418 7.8188 0.267456 9.08506 0.267456 10.6415V25.6931C0.267456 26.209 0.685866 26.6274 1.20182 26.6274C1.71778 26.6274 2.13619 26.209 2.13619 25.6931V10.6415C2.13619 10.1155 2.5646 9.68754 3.09111 9.68754H8.34618V33.1037H2.13619V26.4381C2.13619 25.9222 1.71778 25.5038 1.20182 25.5038C0.685866 25.5038 0.267456 25.9222 0.267456 26.4381V37.9097V37.9101C0.267456 39.4671 1.53418 40.7338 3.09111 40.7338H16.5207L16.0071 45.1418C15.8904 46.1657 15.0259 46.9371 13.9956 46.9371C13.9948 46.9371 13.994 46.9371 13.9933 46.9371C13.9795 46.9365 13.9678 46.9374 13.9549 46.9378C13.9461 46.9382 12.775 46.9401 12.775 46.9401C12.259 46.9401 11.8406 47.3585 11.8406 47.8745C11.8406 48.3904 12.259 48.8088 12.775 48.8088H31.5434C32.0594 48.8088 32.4778 48.3904 32.4778 47.8745C32.4778 47.3585 32.0594 46.9401 31.5434 46.9401C31.5434 46.9401 30.3724 46.9381 30.3636 46.9378C30.3512 46.9374 30.3388 46.9371 30.3265 46.9371C30.3253 46.9372 30.3242 46.9372 30.3229 46.9371C29.2927 46.9371 28.4282 46.1657 28.3114 45.1418C28.3113 45.141 28.3112 45.1402 28.3111 45.1396L27.7977 40.7339H41.1657C42.7227 40.7339 43.9894 39.4672 43.9894 37.9102V37.9098V10.6415C43.9893 9.08496 42.7226 7.8188 41.1656 7.8188ZM41.1656 9.68754C41.6921 9.68754 42.1206 10.1155 42.1206 10.6415V33.1037H35.9107V9.68754H41.1656ZM34.0419 2.83797L34.0418 33.1033H10.2151V2.83797H34.0419ZM42.1206 34.9724V37.9098C42.1206 38.4364 41.6921 38.8648 41.1656 38.8648H3.09111C2.5646 38.8648 2.13619 38.4364 2.13619 37.9098V34.9724H42.1206ZM26.4548 45.3555C26.5211 45.9341 26.7115 46.4708 26.9978 46.9401H17.321C17.6072 46.4708 17.7977 45.9342 17.8635 45.3558L18.4021 40.7338H25.9164L26.4548 45.3555Z" fill="#3284FF"/>
</svg>
