<svg width="18" height="16" viewBox="0 0 18 16" fill="none" xmlns="http://www.w3.org/2000/svg">
<path d="M9.84803 0.779466C9.71253 0.835988 9.62411 0.967884 9.62411 1.11425V5.08457L0.566069 5.08457C0.366067 5.08457 0.203735 5.2469 0.203735 5.44691L0.203735 11.2441C0.203735 11.4441 0.366067 11.6064 0.566069 11.6064L9.62415 11.6064V15.592C9.62415 15.7383 9.71257 15.8702 9.84735 15.9267C9.98285 15.9825 10.1387 15.9521 10.2423 15.8485L17.4945 8.62014C17.5627 8.55203 17.6011 8.45998 17.6011 8.36362C17.6011 8.26725 17.5627 8.1752 17.4953 8.10709L10.243 0.857727C10.1393 0.754091 9.98356 0.722943 9.84803 0.779466Z" fill="#3284FF"/>
</svg>
