<svg width="50" height="30" viewBox="0 0 50 30" fill="none" xmlns="http://www.w3.org/2000/svg">
<path d="M48.9785 0.0776367H32.2613C31.1717 0.0800446 30.1271 0.512263 29.3541 1.27998L23.9813 6.65282H2.95227C1.5906 6.65282 0.486572 7.75684 0.486572 9.11851V27.2003C0.486572 28.5619 1.5906 29.666 2.95227 29.666H39.1158C40.4774 29.666 41.5815 28.5619 41.5815 27.2003V18.9813H44.0472C45.9992 18.9793 47.6815 17.606 48.0744 15.6937H48.9785C49.4324 15.6937 49.8004 15.3257 49.8004 14.8718V0.899535C49.8004 0.445645 49.4324 0.0776367 48.9785 0.0776367ZM39.9377 27.2003C39.9377 27.6542 39.5697 28.0222 39.1158 28.0222H2.95227C2.49838 28.0222 2.13037 27.6542 2.13037 27.2003V9.11851C2.13037 8.66462 2.49838 8.29662 2.95227 8.29662H32.5406V9.2056L29.2803 12.4651C28.9921 12.7544 28.8232 13.1409 28.8067 13.5487C28.8067 13.5763 28.7983 13.6028 28.7983 13.6309C28.7967 14.068 28.9701 14.4877 29.2803 14.7964L29.8554 15.3714C30.6251 16.144 31.6705 16.5782 32.7609 16.5782C33.8513 16.5782 34.8967 16.144 35.6665 15.3714L39.4561 11.5842H39.9377V27.2003ZM48.1566 14.0499H47.3348C46.8809 14.0499 46.5129 14.4179 46.5129 14.8718C46.5129 16.2335 45.4088 17.3375 44.0472 17.3375H41.5815V11.5842C43.8501 11.5814 45.6881 9.74336 45.691 7.47472H44.0472C44.0472 8.83639 42.9431 9.94041 41.5815 9.94041H39.1158C38.8979 9.94041 38.6888 10.0271 38.5347 10.1812L34.5074 14.2084C34.1567 14.5612 33.708 14.7996 33.2196 14.8923C32.4178 15.0347 31.5971 14.7795 31.0176 14.2076L30.4421 13.6281L33.9428 10.127C34.0973 9.97292 34.184 9.76383 34.1844 9.54592V7.47472C34.1844 7.02083 33.8164 6.65282 33.3625 6.65282H26.3057L30.5163 2.4422C30.9803 1.98189 31.6075 1.72304 32.2613 1.72143H48.1566V14.0499Z" fill="#3284FF"/>
</svg>
